<mxfile host="65bd71144e">
    <diagram id="yABSBON5_DmEMwgWKBGt" name="Page-1">
        <mxGraphModel dx="1012" dy="628" grid="1" gridSize="10" guides="1" tooltips="1" connect="1" arrows="1" fold="1" page="1" pageScale="1" pageWidth="850" pageHeight="1100" math="0" shadow="0">
            <root>
                <mxCell id="0"/>
                <mxCell id="1" parent="0"/>
                <mxCell id="33" value="    #StaticMap" style="swimlane;dashed=1;fontSize=18;fontColor=#000000;fillColor=none;startSize=23;" parent="1" vertex="1">
                    <mxGeometry x="139" y="120" width="600" height="400" as="geometry">
                        <mxRectangle x="139" y="120" width="170" height="30" as="alternateBounds"/>
                    </mxGeometry>
                </mxCell>
                <mxCell id="82" value="&lt;font face=&quot;droid sans mono, monospace, monospace, droid sans fallback, droid sans mono, monospace, monospace&quot;&gt;&lt;span style=&quot;font-size: 16px&quot;&gt;update&lt;/span&gt;&lt;/font&gt;" style="rhombus;whiteSpace=wrap;html=1;fillColor=#E6E6E6;fontStyle=0;fontColor=#000000;" vertex="1" parent="33">
                    <mxGeometry x="191" y="220" width="200" height="60" as="geometry"/>
                </mxCell>
                <mxCell id="84" value="No" style="edgeStyle=orthogonalEdgeStyle;html=1;exitX=0.5;exitY=0;exitDx=0;exitDy=0;entryX=0;entryY=0;entryDx=190;entryDy=40;fontSize=18;fontColor=#000000;fillColor=#ffcd28;gradientColor=#ffa500;strokeColor=#d79b00;strokeWidth=2;entryPerimeter=0;" edge="1" parent="33" source="82" target="13">
                    <mxGeometry relative="1" as="geometry">
                        <mxPoint x="452.75" y="461" as="targetPoint"/>
                        <Array as="points">
                            <mxPoint x="291" y="86"/>
                        </Array>
                    </mxGeometry>
                </mxCell>
                <mxCell id="13" value="&lt;span style=&quot;color: rgb(34 , 129 , 167) ; font-family: &amp;#34;droid sans mono&amp;#34; , &amp;#34;monospace&amp;#34; , &amp;#34;monospace&amp;#34; , &amp;#34;droid sans fallback&amp;#34; , &amp;#34;droid sans mono&amp;#34; , &amp;#34;monospace&amp;#34; , monospace ; font-size: 16px ; font-weight: 700&quot;&gt;#Add()&lt;/span&gt;" style="shape=cube;whiteSpace=wrap;html=1;boundedLbl=1;backgroundOutline=1;darkOpacity=0.05;darkOpacity2=0.1;labelBackgroundColor=none;size=10;" parent="33" vertex="1">
                    <mxGeometry x="30" y="46" width="190" height="70" as="geometry"/>
                </mxCell>
                <mxCell id="90" value="" style="group" vertex="1" connectable="0" parent="33">
                    <mxGeometry x="310" y="46" width="263.12" height="150" as="geometry"/>
                </mxCell>
                <mxCell id="14" value="&lt;span style=&quot;font-family: &amp;#34;droid sans mono&amp;#34; , &amp;#34;monospace&amp;#34; , &amp;#34;monospace&amp;#34; , &amp;#34;droid sans fallback&amp;#34; , &amp;#34;droid sans mono&amp;#34; , &amp;#34;monospace&amp;#34; , monospace ; font-size: 16px ; color: rgb(34 , 129 , 167) ; font-weight: bold&quot;&gt;#Fresh()&lt;/span&gt;" style="shape=cube;whiteSpace=wrap;html=1;boundedLbl=1;backgroundOutline=1;darkOpacity=0.05;darkOpacity2=0.1;labelBackgroundColor=none;size=10;" parent="90" vertex="1">
                    <mxGeometry width="263.12" height="70" as="geometry"/>
                </mxCell>
                <mxCell id="88" value="&lt;span style=&quot;font-family: &amp;#34;droid sans mono&amp;#34; , &amp;#34;monospace&amp;#34; , &amp;#34;monospace&amp;#34; , &amp;#34;droid sans fallback&amp;#34; , &amp;#34;droid sans mono&amp;#34; , &amp;#34;monospace&amp;#34; , monospace ; font-size: 16px&quot;&gt;track&lt;/span&gt;" style="rounded=0;whiteSpace=wrap;html=1;labelBackgroundColor=none;fillColor=#E6E6E6;fontColor=#000000;fontStyle=0" vertex="1" parent="90">
                    <mxGeometry x="22.060000000000002" y="70" width="226.94" height="40" as="geometry"/>
                </mxCell>
                <mxCell id="89" value="&lt;span style=&quot;font-family: &amp;#34;droid sans mono&amp;#34; , &amp;#34;monospace&amp;#34; , &amp;#34;monospace&amp;#34; , &amp;#34;droid sans fallback&amp;#34; , &amp;#34;droid sans mono&amp;#34; , &amp;#34;monospace&amp;#34; , monospace ; font-size: 16px&quot;&gt;UpdateLocation&lt;/span&gt;" style="rounded=0;whiteSpace=wrap;html=1;labelBackgroundColor=none;fillColor=#E6E6E6;fontColor=#000000;fontStyle=0" vertex="1" parent="90">
                    <mxGeometry x="22.060000000000002" y="110" width="226.94" height="40" as="geometry"/>
                </mxCell>
                <mxCell id="91" style="edgeStyle=orthogonalEdgeStyle;html=1;exitX=0.5;exitY=1;exitDx=0;exitDy=0;entryX=1;entryY=0.5;entryDx=0;entryDy=0;" edge="1" parent="33" source="89" target="82">
                    <mxGeometry relative="1" as="geometry"/>
                </mxCell>
                <mxCell id="56" style="edgeStyle=orthogonalEdgeStyle;html=1;exitX=0;exitY=0;exitDx=100;exitDy=70;entryX=0.5;entryY=0;entryDx=0;entryDy=0;fontSize=18;fontColor=#000000;strokeWidth=2;fillColor=#ffcd28;gradientColor=#ffa500;strokeColor=#d79b00;exitPerimeter=0;" parent="1" source="13" target="72" edge="1">
                    <mxGeometry relative="1" as="geometry">
                        <Array as="points">
                            <mxPoint x="269" y="420"/>
                            <mxPoint x="430" y="420"/>
                        </Array>
                        <mxPoint x="266.59765625" y="276" as="sourcePoint"/>
                        <mxPoint x="585.75" y="398" as="targetPoint"/>
                    </mxGeometry>
                </mxCell>
                <mxCell id="61" style="edgeStyle=orthogonalEdgeStyle;html=1;exitX=1;exitY=0.5;exitDx=0;exitDy=0;entryX=0;entryY=0;entryDx=126.56;entryDy=0;entryPerimeter=0;fontSize=18;fontColor=#000000;strokeWidth=1;fillColor=#ffcd28;gradientColor=#ffa500;strokeColor=#000000;" parent="1" source="59" target="14" edge="1">
                    <mxGeometry relative="1" as="geometry">
                        <Array as="points">
                            <mxPoint x="576" y="45"/>
                        </Array>
                    </mxGeometry>
                </mxCell>
                <mxCell id="59" value="start" style="ellipse;whiteSpace=wrap;html=1;fontSize=18;fontColor=#000000;strokeColor=#000000;fillColor=#FFFFFF;" parent="1" vertex="1">
                    <mxGeometry x="379" y="20" width="120" height="50" as="geometry"/>
                </mxCell>
                <mxCell id="63" value="end" style="ellipse;whiteSpace=wrap;html=1;fontSize=18;fontColor=#000000;strokeColor=#000000;fillColor=#FFFFFF;" parent="1" vertex="1">
                    <mxGeometry x="370" y="960" width="120" height="50" as="geometry"/>
                </mxCell>
                <mxCell id="65" style="edgeStyle=orthogonalEdgeStyle;html=1;exitX=0.5;exitY=1;exitDx=0;exitDy=0;entryX=0.5;entryY=0;entryDx=0;entryDy=0;fontSize=18;fontColor=#000000;strokeWidth=2;fillColor=#ffcd28;gradientColor=#ffa500;strokeColor=#d79b00;" parent="1" source="72" target="63" edge="1">
                    <mxGeometry relative="1" as="geometry">
                        <mxPoint x="270.28" y="951" as="sourcePoint"/>
                    </mxGeometry>
                </mxCell>
                <mxCell id="72" value="    #EscalatorMap" style="swimlane;dashed=1;fontSize=18;fontColor=#000000;fillColor=none;" vertex="1" parent="1">
                    <mxGeometry x="130" y="610" width="600" height="260" as="geometry">
                        <mxRectangle x="139" y="120" width="170" height="30" as="alternateBounds"/>
                    </mxGeometry>
                </mxCell>
                <mxCell id="73" value="" style="group" vertex="1" connectable="0" parent="72">
                    <mxGeometry x="30" y="46" width="256" height="110" as="geometry"/>
                </mxCell>
                <mxCell id="74" value="&lt;span style=&quot;color: rgb(34 , 129 , 167) ; font-family: &amp;#34;droid sans mono&amp;#34; , &amp;#34;monospace&amp;#34; , &amp;#34;monospace&amp;#34; , &amp;#34;droid sans fallback&amp;#34; , &amp;#34;droid sans mono&amp;#34; , &amp;#34;monospace&amp;#34; , monospace ; font-size: 16px ; font-weight: 700&quot;&gt;#Add()&lt;/span&gt;" style="shape=cube;whiteSpace=wrap;html=1;boundedLbl=1;backgroundOutline=1;darkOpacity=0.05;darkOpacity2=0.1;labelBackgroundColor=none;size=10;" vertex="1" parent="73">
                    <mxGeometry width="256" height="70" as="geometry"/>
                </mxCell>
                <mxCell id="75" value="&lt;span style=&quot;font-family: &amp;quot;droid sans mono&amp;quot;, &amp;quot;monospace&amp;quot;, &amp;quot;monospace&amp;quot;, &amp;quot;droid sans fallback&amp;quot;, &amp;quot;droid sans mono&amp;quot;, &amp;quot;monospace&amp;quot;, monospace; font-size: 16px;&quot;&gt;getCameraParam = false&lt;/span&gt;" style="rounded=0;whiteSpace=wrap;html=1;labelBackgroundColor=none;fillColor=#E6E6E6;fontColor=#000000;fontStyle=0" vertex="1" parent="73">
                    <mxGeometry x="19" y="70" width="225" height="40" as="geometry"/>
                </mxCell>
                <mxCell id="76" value="" style="group" vertex="1" connectable="0" parent="72">
                    <mxGeometry x="310" y="46" width="263.12" height="150" as="geometry"/>
                </mxCell>
                <mxCell id="77" value="&lt;span style=&quot;font-family: &amp;#34;droid sans mono&amp;#34; , &amp;#34;monospace&amp;#34; , &amp;#34;monospace&amp;#34; , &amp;#34;droid sans fallback&amp;#34; , &amp;#34;droid sans mono&amp;#34; , &amp;#34;monospace&amp;#34; , monospace ; font-size: 16px ; color: rgb(34 , 129 , 167) ; font-weight: bold&quot;&gt;#Fresh()&lt;/span&gt;" style="shape=cube;whiteSpace=wrap;html=1;boundedLbl=1;backgroundOutline=1;darkOpacity=0.05;darkOpacity2=0.1;labelBackgroundColor=none;size=10;" vertex="1" parent="76">
                    <mxGeometry width="263.12" height="70" as="geometry"/>
                </mxCell>
                <mxCell id="78" value="&lt;span style=&quot;font-family: &amp;quot;droid sans mono&amp;quot;, &amp;quot;monospace&amp;quot;, &amp;quot;monospace&amp;quot;, &amp;quot;droid sans fallback&amp;quot;, &amp;quot;droid sans mono&amp;quot;, &amp;quot;monospace&amp;quot;, monospace; font-size: 16px;&quot;&gt;cameraParam = param&lt;/span&gt;" style="rounded=0;whiteSpace=wrap;html=1;labelBackgroundColor=none;fillColor=#E6E6E6;fontColor=#000000;fontStyle=0" vertex="1" parent="76">
                    <mxGeometry x="23.060000000000002" y="70" width="226.94" height="40" as="geometry"/>
                </mxCell>
                <mxCell id="79" value="&lt;span style=&quot;font-family: &amp;quot;droid sans mono&amp;quot;, &amp;quot;monospace&amp;quot;, &amp;quot;monospace&amp;quot;, &amp;quot;droid sans fallback&amp;quot;, &amp;quot;droid sans mono&amp;quot;, &amp;quot;monospace&amp;quot;, monospace; font-size: 16px;&quot;&gt;getCameraParam = true&lt;/span&gt;" style="rounded=0;whiteSpace=wrap;html=1;labelBackgroundColor=none;fillColor=#E6E6E6;fontColor=#000000;fontStyle=0" vertex="1" parent="76">
                    <mxGeometry x="23.060000000000002" y="110" width="226.94" height="40" as="geometry"/>
                </mxCell>
                <mxCell id="86" value="Yes" style="edgeStyle=orthogonalEdgeStyle;html=1;exitX=0.5;exitY=1;exitDx=0;exitDy=0;entryX=0.5;entryY=0;entryDx=0;entryDy=0;fontSize=18;fontColor=#000000;strokeWidth=2;fillColor=#d80073;strokeColor=#A50040;" edge="1" parent="1" source="82" target="72">
                    <mxGeometry relative="1" as="geometry">
                        <Array as="points">
                            <mxPoint x="430" y="400"/>
                        </Array>
                        <mxPoint x="705.22" y="641" as="targetPoint"/>
                    </mxGeometry>
                </mxCell>
            </root>
        </mxGraphModel>
    </diagram>
</mxfile>